<svg xmlns="http://www.w3.org/2000/svg" xmlns:xlink="http://www.w3.org/1999/xlink" width="1000" zoomAndPan="magnify" viewBox="0 0 750 374.999991" height="500" preserveAspectRatio="xMidYMid meet" version="1.0"><path fill="#674188" d="M 376.496094 13.867188 L 376.496094 16.863281 L 373.496094 16.863281 L 373.496094 13.867188 M 376.496094 19.863281 L 376.496094 22.863281 L 373.496094 22.863281 L 373.496094 19.863281 M 376.496094 25.863281 L 376.496094 28.859375 L 373.496094 28.859375 L 373.496094 25.863281 M 376.496094 31.859375 L 376.496094 34.859375 L 373.496094 34.859375 L 373.496094 31.859375 M 376.496094 37.859375 L 376.496094 40.855469 L 373.496094 40.855469 L 373.496094 37.859375 M 376.496094 43.855469 L 376.496094 46.855469 L 373.496094 46.855469 L 373.496094 43.855469 M 376.496094 49.851562 L 376.496094 52.851562 L 373.496094 52.851562 L 373.496094 49.851562 M 376.496094 55.851562 L 376.496094 58.851562 L 373.496094 58.851562 L 373.496094 55.851562 M 376.496094 61.847656 L 376.496094 64.847656 L 373.496094 64.847656 L 373.496094 61.847656 M 376.496094 67.847656 L 376.496094 70.847656 L 373.496094 70.847656 L 373.496094 67.847656 M 376.496094 73.84375 L 376.496094 76.84375 L 373.496094 76.84375 L 373.496094 73.84375 M 376.496094 79.84375 L 376.496094 82.84375 L 373.496094 82.84375 L 373.496094 79.84375 M 376.496094 85.839844 L 376.496094 88.839844 L 373.496094 88.839844 L 373.496094 85.839844 M 376.496094 91.839844 L 376.496094 94.839844 L 373.496094 94.839844 L 373.496094 91.839844 M 376.496094 97.835938 L 376.496094 100.835938 L 373.496094 100.835938 L 373.496094 97.835938 M 376.496094 103.835938 L 376.496094 106.835938 L 373.496094 106.835938 L 373.496094 103.835938 M 376.496094 109.832031 L 376.496094 112.832031 L 373.496094 112.832031 L 373.496094 109.832031 M 376.496094 115.832031 L 376.496094 118.832031 L 373.496094 118.832031 L 373.496094 115.832031 M 376.496094 121.828125 L 376.496094 124.828125 L 373.496094 124.828125 L 373.496094 121.828125 M 376.496094 127.828125 L 376.496094 130.824219 L 373.496094 130.824219 L 373.496094 127.828125 M 376.496094 133.824219 L 376.496094 136.824219 L 373.496094 136.824219 L 373.496094 133.824219 M 376.496094 139.824219 L 376.496094 142.820312 L 373.496094 142.820312 L 373.496094 139.824219 M 376.496094 145.820312 L 376.496094 148.820312 L 373.496094 148.820312 L 373.496094 145.820312 M 376.496094 151.820312 L 376.496094 154.816406 L 373.496094 154.816406 L 373.496094 151.820312 M 376.496094 157.816406 L 376.496094 160.816406 L 373.496094 160.816406 L 373.496094 157.816406 M 376.496094 163.816406 L 376.496094 166.8125 L 373.496094 166.8125 L 373.496094 163.816406 M 376.496094 169.8125 L 376.496094 172.8125 L 373.496094 172.8125 L 373.496094 169.8125 M 376.496094 175.8125 L 376.496094 178.808594 L 373.496094 178.808594 L 373.496094 175.8125 M 376.496094 181.808594 L 376.496094 184.808594 L 373.496094 184.808594 L 373.496094 181.808594 M 376.496094 187.808594 L 376.496094 190.804688 L 373.496094 190.804688 L 373.496094 187.808594 M 376.496094 193.804688 L 376.496094 196.804688 L 373.496094 196.804688 L 373.496094 193.804688 M 376.496094 199.804688 L 376.496094 202.800781 L 373.496094 202.800781 L 373.496094 199.804688 M 376.496094 205.800781 L 376.496094 208.800781 L 373.496094 208.800781 L 373.496094 205.800781 M 376.496094 211.796875 L 376.496094 214.796875 L 373.496094 214.796875 L 373.496094 211.796875 M 376.496094 217.796875 L 376.496094 220.796875 L 373.496094 220.796875 L 373.496094 217.796875 M 376.496094 223.792969 L 376.496094 226.792969 L 373.496094 226.792969 L 373.496094 223.792969 M 376.496094 229.792969 L 376.496094 232.792969 L 373.496094 232.792969 L 373.496094 229.792969 M 376.496094 235.789062 L 376.496094 238.789062 L 373.496094 238.789062 L 373.496094 235.789062 M 376.496094 241.789062 L 376.496094 244.789062 L 373.496094 244.789062 L 373.496094 241.789062 M 376.496094 247.785156 L 376.496094 250.785156 L 373.496094 250.785156 L 373.496094 247.785156 M 376.496094 253.785156 L 376.496094 256.785156 L 373.496094 256.785156 L 373.496094 253.785156 M 376.496094 259.78125 L 376.496094 262.78125 L 373.496094 262.78125 L 373.496094 259.78125 M 376.496094 265.78125 L 376.496094 268.78125 L 373.496094 268.78125 L 373.496094 265.78125 M 376.496094 271.777344 L 376.496094 274.777344 L 373.496094 274.777344 L 373.496094 271.777344 M 376.496094 277.777344 L 376.496094 280.773438 L 373.496094 280.773438 L 373.496094 277.777344 M 376.496094 283.773438 L 376.496094 286.773438 L 373.496094 286.773438 L 373.496094 283.773438 M 376.496094 289.773438 L 376.496094 292.769531 L 373.496094 292.769531 L 373.496094 289.773438 M 376.496094 295.769531 L 376.496094 298.769531 L 373.496094 298.769531 L 373.496094 295.769531 M 376.496094 301.769531 L 376.496094 304.765625 L 373.496094 304.765625 L 373.496094 301.769531 M 376.496094 307.765625 L 376.496094 310.765625 L 373.496094 310.765625 L 373.496094 307.765625 M 376.496094 313.765625 L 376.496094 316.761719 L 373.496094 316.761719 L 373.496094 313.765625 M 376.496094 319.761719 L 376.496094 322.761719 L 373.496094 322.761719 L 373.496094 319.761719 M 376.496094 325.761719 L 376.496094 328.757812 L 373.496094 328.757812 L 373.496094 325.761719 M 376.496094 331.757812 L 376.496094 334.757812 L 373.496094 334.757812 L 373.496094 331.757812 M 376.496094 337.757812 L 376.496094 340.753906 L 373.496094 340.753906 L 373.496094 337.757812 M 376.496094 343.753906 L 376.496094 346.753906 L 373.496094 346.753906 L 373.496094 343.753906 M 376.496094 349.753906 L 376.496094 352.75 L 373.496094 352.75 L 373.496094 349.753906 M 376.496094 355.75 L 376.496094 358.75 L 373.496094 358.75 L 373.496094 355.75 " fill-opacity="1" fill-rule="nonzero"/></svg>